<svg width="16" height="16" viewBox="0 0 16 16" fill="none" xmlns="http://www.w3.org/2000/svg">
<path d="M4.33301 11.668V9.66797M7.66634 11.668V5.66797M10.9997 11.668V9.0013" stroke="white" stroke-linecap="round"/>
<path d="M14.333 3.66797C14.333 4.77254 13.4376 5.66797 12.333 5.66797C11.2284 5.66797 10.333 4.77254 10.333 3.66797C10.333 2.5634 11.2284 1.66797 12.333 1.66797C13.4376 1.66797 14.333 2.5634 14.333 3.66797Z" stroke="white"/>
<path d="M14.3307 7.33464C14.3307 7.33464 14.3337 7.56097 14.3337 8.0013C14.3337 10.9869 14.3337 12.4796 13.4062 13.4072C12.4787 14.3346 10.9859 14.3346 8.00033 14.3346C5.01477 14.3346 3.52199 14.3346 2.59449 13.4072C1.66699 12.4796 1.66699 10.9869 1.66699 8.0013C1.66699 5.01576 1.66699 3.52298 2.59449 2.59548C3.52199 1.66799 5.01477 1.66799 8.00033 1.66799L8.66699 1.66797" stroke="white" stroke-linecap="round" stroke-linejoin="round"/>
</svg>
