<svg width="16" height="16" viewBox="0 0 16 16" fill="none" xmlns="http://www.w3.org/2000/svg">
<path d="M11.3311 6.0081H11.3365M11.3367 4.67236V3.00268M14.667 4.52767C14.667 6.29189 13.1732 7.72234 11.3311 7.72234C11.1144 7.72261 10.8985 7.70254 10.6857 7.66254C10.5325 7.63374 10.456 7.61941 10.4025 7.62754C10.349 7.63567 10.2733 7.67601 10.1218 7.75674C9.69318 7.98487 9.19338 8.06547 8.71272 7.97601C8.89538 7.75101 9.02018 7.48114 9.07518 7.19181C9.10858 7.01487 9.02592 6.84294 8.90205 6.71714C8.33985 6.14553 7.99512 5.37532 7.99512 4.52767C7.99512 2.76344 9.48885 1.33301 11.3311 1.33301C13.1732 1.33301 14.667 2.76344 14.667 4.52767Z" stroke="white" stroke-linecap="round" stroke-linejoin="round"/>
<path d="M5.00093 14.6663H3.14512C2.92959 14.6663 2.71315 14.636 2.51519 14.5509C1.87078 14.2741 1.54383 13.9085 1.39147 13.6798C1.30477 13.5497 1.31712 13.3839 1.41118 13.259C2.15778 12.2673 3.88881 11.6683 5.00093 11.6683M5.00411 14.6663H6.85994C7.07547 14.6663 7.29187 14.636 7.48987 14.5509C8.13427 14.2741 8.46121 13.9085 8.61361 13.6798C8.70027 13.5497 8.68794 13.3839 8.59387 13.259C7.84727 12.2673 6.11623 11.6683 5.00411 11.6683M6.85661 8.19221C6.85661 9.21308 6.02721 10.0406 5.00411 10.0406C3.981 10.0406 3.15161 9.21308 3.15161 8.19221C3.15161 7.17134 3.981 6.34375 5.00411 6.34375C6.02721 6.34375 6.85661 7.17134 6.85661 8.19221Z" stroke="white" stroke-linecap="round" stroke-linejoin="round"/>
</svg>
