<svg width="25" height="29" viewBox="0 0 25 29" fill="none" xmlns="http://www.w3.org/2000/svg">
<path d="M0 28.25V23.25H25V28.25H0ZM2.5 20.75V15.4375L16.5 1.46875C16.7292 1.23958 16.9948 1.0625 17.2969 0.9375C17.599 0.8125 17.9167 0.75 18.25 0.75C18.5833 0.75 18.9063 0.8125 19.2188 0.9375C19.5313 1.0625 19.8125 1.25 20.0625 1.5L21.7813 3.25C22.0313 3.47917 22.2135 3.75 22.3281 4.0625C22.4427 4.375 22.5 4.69792 22.5 5.03125C22.5 5.34375 22.4427 5.65104 22.3281 5.95312C22.2135 6.25521 22.0313 6.53125 21.7813 6.78125L7.8125 20.75H2.5ZM18.25 6.75L20 5L18.25 3.25L16.5 5L18.25 6.75Z" fill="#868282"/>
</svg>
